<svg xmlns="http://www.w3.org/2000/svg" width="65" height="65" viewBox="0 0 65 65">
    <g fill="none" fill-rule="evenodd">
        <g>
            <g transform="translate(-873 -465) translate(873 465)">
                <circle cx="32.5" cy="32.5" r="32.5" fill="#F44336"/>
                <g fill="#FFF" fill-rule="nonzero">
                    <path d="M35.124 29.765c1.162-2.011 1.17-4.408.015-6.412L23.549 3.228C22.404 1.202 20.332 0 18.008 0s-4.396 1.21-5.543 3.22L.86 23.369c-1.154 2.026-1.147 4.437.023 6.449C2.037 31.805 4.102 33 6.41 33h23.148c2.316 0 4.396-1.21 5.565-3.235zM18.007 2.909c1.265 0 2.398.66 3.027 1.766l11.596 20.14c.622 1.083.614 2.39-.022 3.495-.644 1.113-1.784 1.774-3.057 1.774H6.403c-1.258 0-2.39-.646-3.02-1.737-.636-1.105-.643-2.426-.007-3.54L14.98 4.668c.63-1.105 1.754-1.758 3.027-1.758zM18 23.189c-1.007 0-1.85.847-1.85 1.856 0 1.01.843 1.855 1.85 1.855.923 0 1.766-.767 1.805-1.674v-.137c.045-1.06-.792-1.9-1.805-1.9zm-.46-13.023c-.88.253-1.428 1.054-1.428 2.026l.126 1.766.378 6.657c.044.757.629 1.306 1.384 1.306.754 0 1.346-.586 1.383-1.35 0-.46 0-.884.045-1.351l.251-4.297c.045-.927.126-1.855.17-2.783 0-.334-.044-.63-.17-.927-.377-.831-1.258-1.254-2.138-1.047z" transform="translate(15 14)"/>
                </g>
            </g>
        </g>
    </g>
</svg>
