<svg xmlns="http://www.w3.org/2000/svg" width="22" height="27" viewBox="0 0 22 27">
    <path fill="#FFF" fill-rule="nonzero" d="M1.802 8.038v15.58c0 .92.338 1.785.93 2.405A3.129 3.129 0 0 0 5 27H17a3.128 3.128 0 0 0 2.267-.977c.592-.62.93-1.485.93-2.406V8.038a2.416 2.416 0 0 0 1.781-2.647 2.421 2.421 0 0 0-2.402-2.103h-3.248v-.79a2.48 2.48 0 0 0-.732-1.773A2.497 2.497 0 0 0 13.817 0H8.183a2.497 2.497 0 0 0-1.78.725 2.48 2.48 0 0 0-.733 1.773v.79H2.423c-1.217 0-2.245.9-2.402 2.103A2.416 2.416 0 0 0 1.8 8.038zm15.2 17.697H4.998c-1.085 0-1.929-.928-1.929-2.118V8.094h15.86v15.523c0 1.19-.844 2.118-1.929 2.118zM6.94 2.498a1.224 1.224 0 0 1 1.243-1.233h5.633a1.224 1.224 0 0 1 1.244 1.233v.79H6.94v-.79zM2.423 4.553h17.154c.63 0 1.141.51 1.141 1.138a1.14 1.14 0 0 1-1.141 1.138H2.423a1.14 1.14 0 0 1-1.141-1.138 1.14 1.14 0 0 1 1.141-1.138zm12.32 5.23c.35 0 .634.282.634.632v11.95a.633.633 0 0 1-1.269 0v-11.95c0-.35.284-.633.635-.633zm-7.486 0c.35 0 .635.282.635.632v11.95a.633.633 0 0 1-1.27 0v-11.95c0-.35.285-.633.635-.633zm3.743 0c.35 0 .634.282.634.632v11.95a.633.633 0 0 1-1.268 0v-11.95c0-.35.284-.633.634-.633z"/>
</svg>
