<svg xmlns="http://www.w3.org/2000/svg" xmlns:xlink="http://www.w3.org/1999/xlink" width="38" height="38" viewBox="0 0 38 38">
    <defs>
        <filter id="prefix__a" width="125%" height="125%" x="-12.5%" y="-8.9%" filterUnits="objectBoundingBox">
            <feOffset dy="1" in="SourceAlpha" result="shadowOffsetOuter1"/>
            <feGaussianBlur in="shadowOffsetOuter1" result="shadowBlurOuter1" stdDeviation="1"/>
            <feComposite in="shadowBlurOuter1" in2="SourceAlpha" operator="out" result="shadowBlurOuter1"/>
            <feColorMatrix in="shadowBlurOuter1" values="0 0 0 0 0 0 0 0 0 0 0 0 0 0 0 0 0 0 0.218098958 0"/>
        </filter>
        <circle id="prefix__b" cx="19" cy="19" r="14"/>
    </defs>
    <g fill="none" fill-rule="evenodd">
        <g fill-rule="nonzero">
            <use fill="#000" filter="url(#prefix__a)" xlink:href="#prefix__b"/>
            <use fill="#FFF" fill-opacity=".9" xlink:href="#prefix__b"/>
        </g>
        <g fill="#000">
            <path d="M19.33.522c-.37 0-.67.299-.67.667v1.2C16.644.84 14.187 0 11.6 0 8.502 0 5.589 1.204 3.398 3.39 1.207 5.579 0 8.486 0 11.578c0 3.093 1.207 6 3.398 8.187.13.13.302.196.473.196.171 0 .342-.066.473-.196.261-.26.261-.684 0-.945-1.938-1.934-3.006-4.506-3.006-7.242C1.338 5.93 5.942 1.336 11.6 1.336c2.143 0 4.185.65 5.9 1.86h-.848c-.37 0-.669.298-.669.667 0 .37.3.668.67.668h2.676c.022 0 .043-.001.064-.003l.055-.008.01-.001.052-.013.011-.003c.017-.005.033-.01.05-.017l.012-.005c.016-.006.03-.014.046-.021l.013-.007c.016-.008.031-.017.047-.027l.01-.006c.074-.05.139-.114.188-.188l.006-.01c.01-.015.02-.03.028-.047l.006-.013.022-.046.004-.013.017-.049.003-.01c.005-.018.01-.035.013-.053l.001-.008c.007-.04.012-.079.012-.12V1.19c0-.368-.3-.667-.67-.667zM11.864 21.816c-.173.004-.35.004-.522 0-.369-.008-.676.282-.685.65-.01.37.283.676.652.685.096.003.194.004.291.004.099 0 .199-.001.297-.004.37-.01.662-.316.652-.684-.009-.37-.317-.66-.685-.651zM22.878 8.857c-.046-.189-.097-.38-.152-.567-.105-.353-.477-.555-.832-.45-.354.104-.557.475-.452.83.049.164.094.333.135.5.074.306.348.512.65.512.052 0 .104-.006.157-.019.36-.086.58-.447.494-.806zM6.696 20.576c-.152-.082-.303-.17-.45-.26-.315-.193-.727-.094-.92.22-.194.315-.095.726.22.919.167.102.338.2.51.294.101.055.21.082.32.082.236 0 .466-.126.587-.349.177-.324.057-.73-.267-.906zM9.196 21.537c-.168-.04-.337-.086-.502-.134-.355-.105-.727.098-.831.451-.105.354.098.726.453.83.187.055.378.106.568.152.053.012.105.018.157.018.302 0 .576-.206.65-.512.086-.359-.135-.72-.495-.805zM21.787 6.036c-.093-.171-.193-.342-.295-.508-.193-.314-.605-.413-.92-.22-.315.193-.414.604-.22.919.09.147.178.298.26.449.122.222.351.348.588.348.109 0 .219-.027.32-.082.325-.177.444-.583.267-.906zM15.342 21.853c-.105-.354-.477-.556-.832-.452-.166.05-.334.094-.502.134-.359.087-.58.447-.494.806.074.306.348.512.65.512.052 0 .104-.006.157-.019.19-.045.38-.096.568-.151.355-.105.557-.476.453-.83zM22.386 13.478c-.36-.086-.72.135-.806.494-.04.168-.086.336-.134.501-.105.354.098.726.453.83.063.018.126.027.189.027.29 0 .556-.188.642-.48.055-.186.106-.377.151-.567.086-.358-.135-.719-.495-.805zM21.526 16.2c-.324-.176-.73-.056-.908.268-.082.151-.17.303-.26.45-.193.314-.094.726.221.918.11.067.23.099.349.099.225 0 .445-.114.571-.32.103-.166.202-.337.295-.508.177-.324.057-.73-.268-.906zM19.986 18.607c-.268-.254-.691-.244-.946.024-.119.125-.243.248-.368.367-.268.254-.278.677-.023.944.131.138.308.208.485.208.165 0 .331-.061.46-.184.142-.134.282-.274.416-.415.255-.267.244-.69-.024-.944zM23.196 11.278c-.01-.363-.307-.651-.668-.651h-.018c-.37.01-.661.316-.652.685.002.088.004.177.004.265 0 .085-.001.17-.004.254-.008.37.284.675.653.684h.017c.362 0 .66-.288.669-.651.002-.095.003-.191.003-.287 0-.1-.001-.2-.004-.3zM17.877 20.534c-.193-.314-.605-.412-.92-.22-.147.09-.298.178-.45.26-.324.177-.443.583-.266.906.121.223.35.349.588.349.108 0 .218-.027.32-.082.17-.093.342-.192.508-.294.315-.193.414-.604.22-.919z" transform="rotate(45 6.367 24.233)"/>
        </g>
        <text fill="#000" font-family="HelveticaNeue-CondensedBlack, Helvetica Neue" font-size="9.6" font-style="condensed" font-weight="700" letter-spacing="-.012">
            <tspan x="11.53" y="22">180</tspan>
        </text>
    </g>
</svg>
