<svg xmlns="http://www.w3.org/2000/svg" xmlns:xlink="http://www.w3.org/1999/xlink" width="38" height="38" viewBox="0 0 38 38">
    <defs>
        <filter id="prefix__a" width="125%" height="125%" x="-12.5%" y="-8.9%" filterUnits="objectBoundingBox">
            <feOffset dy="1" in="SourceAlpha" result="shadowOffsetOuter1"/>
            <feGaussianBlur in="shadowOffsetOuter1" result="shadowBlurOuter1" stdDeviation="1"/>
            <feComposite in="shadowBlurOuter1" in2="SourceAlpha" operator="out" result="shadowBlurOuter1"/>
            <feColorMatrix in="shadowBlurOuter1" values="0 0 0 0 0 0 0 0 0 0 0 0 0 0 0 0 0 0 0.218098958 0"/>
        </filter>
        <circle id="prefix__b" cx="14" cy="14" r="14"/>
    </defs>
    <g fill="none" fill-rule="evenodd">
        <g fill-rule="nonzero" transform="translate(5 5)">
            <use fill="#000" filter="url(#prefix__a)" xlink:href="#prefix__b"/>
            <use fill="#FFF" fill-opacity=".9" xlink:href="#prefix__b"/>
        </g>
        <path fill="#000" d="M17.244 12.506c.326-.341.853-.341 1.179 0l3.334 3.501c.019.02.037.041.054.063l.023.032.026.037.022.038.02.036.018.04.017.037.013.04.014.041.01.04.01.043.007.046.005.039c.005.057.005.115 0 .172l-.005.039-.007.046-.01.043-.01.04-.014.042-.013.039-.017.038-.018.04-.02.035-.022.038-.026.037-.023.032c-.017.021-.035.043-.055.064l-3.333 3.5c-.326.341-.853.341-1.179 0-.325-.342-.325-.896 0-1.238l1.91-2.006H13.5c-.46 0-.833-.392-.833-.875s.373-.875.833-.875h5.655l-1.91-2.006c-.326-.342-.326-.896 0-1.238zm-7.667-5.25c.326-.341.853-.341 1.179 0 .325.342.325.896 0 1.238L8.846 10.5H14.5c.46 0 .833.392.833.875s-.373.875-.833.875H8.845l1.91 2.006c.326.342.326.896 0 1.238-.325.341-.852.341-1.178 0l-3.333-3.5c-.02-.021-.038-.042-.055-.064l-.022-.032-.027-.037-.022-.038-.02-.036-.018-.04-.017-.037-.013-.04-.014-.041-.01-.04-.01-.043-.007-.046-.005-.039c-.005-.057-.005-.115 0-.172l.005-.039.007-.046.01-.043.01-.04.014-.042.013-.039.017-.038.018-.04.02-.035.022-.038.027-.037.022-.032c.017-.022.036-.043.055-.064z" transform="translate(5 5)"/>
    </g>
</svg>
